<svg version="1.1" id="Layer_1" xmlns="http://www.w3.org/2000/svg" xmlns:xlink="http://www.w3.org/1999/xlink" x="0px" y="0px"
	 width="100%" viewBox="0 0 186 111" enable-background="new 0 0 186 111" xml:space="preserve">
<path fill="#191C25" opacity="1.000000" stroke="none" 
	d="
M121.000000,112.000000 
	C80.666672,112.000000 40.833344,112.000000 1.000011,112.000000 
	C1.000007,75.000008 1.000007,38.000019 1.000004,1.000021 
	C62.999985,1.000014 124.999969,1.000014 186.999969,1.000007 
	C186.999969,37.999981 186.999969,74.999962 186.999985,111.999969 
	C165.166672,112.000000 143.333328,112.000000 121.000000,112.000000 
M114.367393,70.179771 
	C114.125076,70.351944 114.037445,70.582878 114.049324,71.598091 
	C116.893295,76.599770 121.886543,77.055962 126.212639,75.564133 
	C128.886993,74.641899 132.054565,70.936058 132.364944,68.182709 
	C133.210556,60.681511 132.655594,53.022423 132.655594,45.000088 
	C129.822876,45.000088 127.360626,45.273399 124.979843,44.948959 
	C117.771187,43.966614 113.553711,47.273796 112.947685,54.580280 
	C112.556465,59.296875 113.690269,63.466789 116.691483,67.398293 
	C116.140327,68.175377 115.589172,68.952469 114.987701,69.984467 
	C114.987701,69.984467 114.746979,70.082230 114.367393,70.179771 
M54.093536,53.085999 
	C54.367569,53.323402 54.641602,53.560806 54.229279,53.997414 
	C50.129246,55.281422 47.842525,58.277897 49.015285,62.263344 
	C49.667534,64.479897 52.319485,67.220093 54.479687,67.645645 
	C58.766628,68.490166 63.337128,67.895309 67.301003,67.895309 
	C67.301003,62.291542 67.422188,57.335495 67.264702,52.388317 
	C67.125458,48.014439 65.035347,44.811672 60.337769,44.999786 
	C57.201267,45.125397 54.111397,46.415600 50.398861,47.347904 
	C49.954762,48.889233 49.510666,50.430561 49.637962,52.326931 
	C50.978058,52.467766 52.318157,52.608601 54.093536,53.085999 
M40.030659,41.437607 
	C39.968956,42.586338 39.907257,43.735069 39.845646,44.882164 
	C31.064205,44.501270 28.393770,45.826042 26.520250,51.411415 
	C24.098326,58.631695 27.455063,67.239532 33.234951,67.883087 
	C37.243893,68.329445 41.342674,67.968941 45.502129,67.968941 
	C45.502129,57.082497 45.502129,46.832821 45.502129,36.391651 
	C43.655350,36.391651 42.091141,36.391651 40.263683,36.391651 
	C40.176010,37.958748 40.103436,39.255970 40.030659,41.437607 
M97.300125,38.211441 
	C95.814369,37.335732 94.328613,36.460026 92.123901,35.160564 
	C92.123901,46.994434 92.123901,57.381458 92.123901,67.790619 
	C93.938522,67.790619 95.410324,67.790619 97.323029,67.790619 
	C97.323029,62.982746 96.993370,58.306900 97.514801,53.727970 
	C97.681030,52.268219 100.107170,51.065819 101.499245,49.745663 
	C102.589249,51.051521 104.498650,52.286335 104.619156,53.676247 
	C105.017281,58.268154 104.769264,62.916084 104.769264,67.709267 
	C106.847565,67.709267 108.413086,67.709267 110.233231,67.709267 
	C110.233231,62.141796 110.444443,56.816116 110.170631,51.515491 
	C109.923363,46.728886 107.021385,44.408787 102.177086,44.602486 
	C100.732338,44.660255 99.298615,44.993813 97.313217,45.279728 
	C97.313217,43.008858 97.313217,41.050537 97.300125,38.211441 
M82.911156,51.499245 
	C84.676155,52.117535 86.441154,52.735825 88.723785,53.535442 
	C88.654716,48.653435 86.952766,45.941437 83.306206,45.127583 
	C79.199066,44.210934 74.950829,43.993614 72.041939,48.027534 
	C69.639359,51.359314 70.748047,55.299713 74.656921,57.029697 
	C76.760414,57.960663 79.140030,58.269360 81.239258,59.207474 
	C82.052544,59.570915 82.435715,60.896835 83.014824,61.784286 
	C82.218155,62.248596 81.377426,63.157394 80.634087,63.083706 
	C79.134804,62.935081 76.792885,62.648975 76.380714,61.718636 
	C74.875153,58.320324 72.697220,59.336521 70.332970,59.870159 
	C70.984863,65.589760 73.721962,67.856773 79.579704,68.062111 
	C83.986671,68.216599 87.607269,67.126732 88.782372,62.378754 
	C89.757828,58.437450 87.151100,55.903530 80.882828,54.009426 
	C79.323738,53.538307 77.895790,52.633205 76.407555,51.927578 
	C76.581169,51.236446 76.754784,50.545319 76.928398,49.854187 
	C78.778999,50.156376 80.629608,50.458565 82.911156,51.499245 
M135.809387,52.506676 
	C134.341309,61.020454 137.669769,67.293457 144.021317,67.983330 
	C150.250076,68.659859 154.746948,65.750473 156.104675,60.165607 
	C157.646912,53.821922 154.944183,47.103092 150.103775,45.247696 
	C144.271988,43.012287 139.184601,45.356186 135.809387,52.506676 
M162.723175,61.089977 
	C161.874313,62.644058 161.025452,64.198135 160.176590,65.752220 
	C161.517044,66.474670 162.873260,67.767242 164.192749,67.730789 
	C165.166870,67.703880 167.071793,65.487900 166.862595,65.038712 
	C166.151169,63.511162 164.686066,62.334610 162.723175,61.089977 
z"/>
<path fill="#EFEFED" opacity="1.000000" stroke="none" 
	d="
M117.054573,66.913689 
	C113.690269,63.466789 112.556465,59.296875 112.947685,54.580280 
	C113.553711,47.273796 117.771187,43.966614 124.979843,44.948959 
	C127.360626,45.273399 129.822876,45.000088 132.655594,45.000088 
	C132.655594,53.022423 133.210556,60.681511 132.364944,68.182709 
	C132.054565,70.936058 128.886993,74.641899 126.212639,75.564133 
	C121.886543,77.055962 116.893295,76.599770 114.263985,71.186203 
	C114.715172,70.600723 114.804611,70.370033 114.746979,70.082230 
	C114.746979,70.082230 114.987701,69.984467 115.331406,69.700584 
	C116.924065,69.794327 118.243828,70.023079 119.408897,70.577126 
	C123.106262,72.335388 125.421280,71.458252 126.431458,68.165390 
	C123.343834,67.753227 120.199203,67.333458 117.054573,66.913689 
M118.705582,54.756466 
	C118.779335,56.394775 118.310905,58.367645 119.063400,59.587124 
	C120.014442,61.128349 121.963211,62.965157 123.475639,62.959885 
	C124.681808,62.955685 126.157722,60.524071 126.980392,58.899769 
	C127.512108,57.849953 127.035774,56.310829 127.092201,54.994446 
	C127.196854,52.552753 127.122833,50.244297 123.943375,49.842354 
	C120.885361,49.455761 119.324448,51.005192 118.705582,54.756466 
z"/>
<path fill="#ECEDEB" opacity="1.000000" stroke="none" 
	d="
M40.030762,40.995399 
	C40.103436,39.255970 40.176010,37.958748 40.263683,36.391651 
	C42.091141,36.391651 43.655350,36.391651 45.502129,36.391651 
	C45.502129,46.832821 45.502129,57.082497 45.502129,67.968941 
	C41.342674,67.968941 37.243893,68.329445 33.234951,67.883087 
	C27.455063,67.239532 24.098326,58.631695 26.520250,51.411415 
	C28.393770,45.826042 31.064205,44.501270 39.845646,44.882164 
	C39.907257,43.735069 39.968956,42.586338 40.030762,40.995399 
M39.599018,51.235355 
	C37.001038,49.168827 34.450207,48.865131 32.467545,51.914196 
	C30.495129,54.947498 31.562502,61.486950 34.034363,62.835529 
	C36.705105,64.292610 39.819374,62.620430 40.017056,59.457951 
	C40.170685,57.000256 39.982021,54.521164 39.599018,51.235355 
z"/>
<path fill="#F4F7F5" opacity="1.000000" stroke="none" 
	d="
M97.306671,38.651829 
	C97.313217,41.050537 97.313217,43.008858 97.313217,45.279728 
	C99.298615,44.993813 100.732338,44.660255 102.177086,44.602486 
	C107.021385,44.408787 109.923363,46.728886 110.170631,51.515491 
	C110.444443,56.816116 110.233231,62.141796 110.233231,67.709267 
	C108.413086,67.709267 106.847565,67.709267 104.769264,67.709267 
	C104.769264,62.916084 105.017281,58.268154 104.619156,53.676247 
	C104.498650,52.286335 102.589249,51.051521 101.499245,49.745663 
	C100.107170,51.065819 97.681030,52.268219 97.514801,53.727970 
	C96.993370,58.306900 97.323029,62.982746 97.323029,67.790619 
	C95.410324,67.790619 93.938522,67.790619 92.123901,67.790619 
	C92.123901,57.381458 92.123901,46.994434 92.123901,35.160564 
	C94.328613,36.460026 95.814369,37.335732 97.306671,38.651829 
z"/>
<path fill="#F1F3F3" opacity="1.000000" stroke="none" 
	d="
M51.000664,47.184616 
	C54.111397,46.415600 57.201267,45.125397 60.337769,44.999786 
	C65.035347,44.811672 67.125458,48.014439 67.264702,52.388317 
	C67.422188,57.335495 67.301003,62.291542 67.301003,67.895309 
	C63.337128,67.895309 58.766628,68.490166 54.479687,67.645645 
	C52.319485,67.220093 49.667534,64.479897 49.015285,62.263344 
	C47.842525,58.277897 50.129246,55.281422 54.967903,53.915722 
	C57.740299,53.470444 59.774075,53.106861 61.947308,52.718346 
	C59.213722,47.868336 57.129993,47.980186 53.658253,52.749435 
	C52.318157,52.608601 50.978058,52.467766 49.429283,51.828064 
	C49.813957,49.947670 50.407310,48.566143 51.000664,47.184616 
M54.830063,58.983868 
	C55.080544,60.255806 54.962475,62.284985 55.665482,62.627136 
	C56.798630,63.178638 58.826935,63.111660 59.824959,62.396214 
	C60.950951,61.589039 61.355747,59.775810 62.665207,57.268501 
	C59.203316,57.791965 57.287182,58.081699 54.830063,58.983868 
z"/>
<path fill="#ECEDED" opacity="1.000000" stroke="none" 
	d="
M82.695679,51.129997 
	C80.629608,50.458565 78.778999,50.156376 76.928398,49.854187 
	C76.754784,50.545319 76.581169,51.236446 76.407555,51.927578 
	C77.895790,52.633205 79.323738,53.538307 80.882828,54.009426 
	C87.151100,55.903530 89.757828,58.437450 88.782372,62.378754 
	C87.607269,67.126732 83.986671,68.216599 79.579704,68.062111 
	C73.721962,67.856773 70.984863,65.589760 70.332970,59.870159 
	C72.697220,59.336521 74.875153,58.320324 76.380714,61.718636 
	C76.792885,62.648975 79.134804,62.935081 80.634087,63.083706 
	C81.377426,63.157394 82.218155,62.248596 83.014824,61.784286 
	C82.435715,60.896835 82.052544,59.570915 81.239258,59.207474 
	C79.140030,58.269360 76.760414,57.960663 74.656921,57.029697 
	C70.748047,55.299713 69.639359,51.359314 72.041939,48.027534 
	C74.950829,43.993614 79.199066,44.210934 83.306206,45.127583 
	C86.952766,45.941437 88.654716,48.653435 88.723785,53.535442 
	C86.441154,52.735825 84.676155,52.117535 82.695679,51.129997 
z"/>
<path fill="#F0F1EF" opacity="1.000000" stroke="none" 
	d="
M135.909119,52.124126 
	C139.184601,45.356186 144.271988,43.012287 150.103775,45.247696 
	C154.944183,47.103092 157.646912,53.821922 156.104675,60.165607 
	C154.746948,65.750473 150.250076,68.659859 144.021317,67.983330 
	C137.669769,67.293457 134.341309,61.020454 135.909119,52.124126 
M150.393921,59.755047 
	C150.482269,57.788910 151.267685,55.460426 150.481888,53.948673 
	C149.507523,52.074181 147.231689,50.876179 145.518066,49.385948 
	C144.038773,51.140373 141.394852,52.865490 141.349792,54.656017 
	C141.280060,57.426243 142.985458,60.241142 143.938126,63.037094 
	C145.994934,62.201656 148.051758,61.366219 150.393921,59.755047 
z"/>
<path fill="#AF4374" opacity="1.000000" stroke="none" 
	d="
M163.115967,61.057007 
	C164.686066,62.334610 166.151169,63.511162 166.862595,65.038712 
	C167.071793,65.487900 165.166870,67.703880 164.192749,67.730789 
	C162.873260,67.767242 161.517044,66.474670 160.176590,65.752220 
	C161.025452,64.198135 161.874313,62.644058 163.115967,61.057007 
z"/>
<path fill="#313745" opacity="1.000000" stroke="none" 
	d="
M116.873032,67.155991 
	C120.199203,67.333458 123.343834,67.753227 126.431458,68.165390 
	C125.421280,71.458252 123.106262,72.335388 119.408897,70.577126 
	C118.243828,70.023079 116.924065,69.794327 115.356560,69.573135 
	C115.589172,68.952469 116.140327,68.175377 116.873032,67.155991 
z"/>
<path fill="#424752" opacity="1.000000" stroke="none" 
	d="
M53.875893,52.917717 
	C57.129993,47.980186 59.213722,47.868336 61.947308,52.718346 
	C59.774075,53.106861 57.740299,53.470444 55.311081,53.816120 
	C54.641602,53.560806 54.367569,53.323402 53.875893,52.917717 
z"/>
<path fill="#424752" opacity="1.000000" stroke="none" 
	d="
M50.699760,47.266258 
	C50.407310,48.566143 49.813957,49.947670 49.143585,51.650543 
	C49.510666,50.430561 49.954762,48.889233 50.699760,47.266258 
z"/>
<path fill="#313745" opacity="1.000000" stroke="none" 
	d="
M114.557190,70.130997 
	C114.804611,70.370033 114.715172,70.600723 114.291573,70.823441 
	C114.037445,70.582878 114.125076,70.351944 114.557190,70.130997 
z"/>
<path fill="#21232F" opacity="1.000000" stroke="none" 
	d="
M118.766663,54.319397 
	C119.324448,51.005192 120.885361,49.455761 123.943375,49.842354 
	C127.122833,50.244297 127.196854,52.552753 127.092201,54.994446 
	C127.035774,56.310829 127.512108,57.849953 126.980392,58.899769 
	C126.157722,60.524071 124.681808,62.955685 123.475639,62.959885 
	C121.963211,62.965157 120.014442,61.128349 119.063400,59.587124 
	C118.310905,58.367645 118.779335,56.394775 118.766663,54.319397 
z"/>
<path fill="#222430" opacity="1.000000" stroke="none" 
	d="
M39.772259,51.643471 
	C39.982021,54.521164 40.170685,57.000256 40.017056,59.457951 
	C39.819374,62.620430 36.705105,64.292610 34.034363,62.835529 
	C31.562502,61.486950 30.495129,54.947498 32.467545,51.914196 
	C34.450207,48.865131 37.001038,49.168827 39.772259,51.643471 
z"/>
<path fill="#2E2F38" opacity="1.000000" stroke="none" 
	d="
M55.100555,58.677650 
	C57.287182,58.081699 59.203316,57.791965 62.665207,57.268501 
	C61.355747,59.775810 60.950951,61.589039 59.824959,62.396214 
	C58.826935,63.111660 56.798630,63.178638 55.665482,62.627136 
	C54.962475,62.284985 55.080544,60.255806 55.100555,58.677650 
z"/>
<path fill="#252832" opacity="1.000000" stroke="none" 
	d="
M150.251251,60.142914 
	C148.051758,61.366219 145.994934,62.201656 143.938110,63.037098 
	C142.985458,60.241142 141.280060,57.426243 141.349792,54.656017 
	C141.394852,52.865490 144.038773,51.140373 145.518066,49.385948 
	C147.231689,50.876179 149.507523,52.074181 150.481888,53.948673 
	C151.267685,55.460426 150.482269,57.788910 150.251251,60.142914 
z"/>
</svg>